<svg width="36" height="36" viewBox="0 0 36 36" fill="none" xmlns="http://www.w3.org/2000/svg">
<circle cx="18" cy="18" r="18" fill="#E3E5F2"/>
<path d="M22.3527 20.2179C23.778 20.218 25.1484 20.7683 26.1779 21.7541C27.2073 22.7399 27.8165 24.085 27.8784 25.5091L27.8839 25.7491V26.8554C27.8841 27.4136 27.6733 27.9512 27.2938 28.3605C26.9142 28.7698 26.394 29.0205 25.8374 29.0623L25.6714 29.0679H10.1839C9.62575 29.068 9.08812 28.8572 8.67883 28.4777C8.26954 28.0981 8.01883 27.5779 7.97697 27.0213L7.97144 26.8554V25.7491C7.97152 24.3238 8.52184 22.9534 9.50764 21.924C10.4934 20.8945 11.8386 20.2853 13.2626 20.2234L13.5027 20.2179H22.3527ZM17.9277 6.94287C19.3947 6.94287 20.8016 7.52563 21.8389 8.56294C22.8762 9.60025 23.4589 11.0071 23.4589 12.4741C23.4589 13.9411 22.8762 15.348 21.8389 16.3853C20.8016 17.4226 19.3947 18.0054 17.9277 18.0054C16.4607 18.0054 15.0538 17.4226 14.0165 16.3853C12.9792 15.348 12.3964 13.9411 12.3964 12.4741C12.3964 11.0071 12.9792 9.60025 14.0165 8.56294C15.0538 7.52563 16.4607 6.94287 17.9277 6.94287V6.94287Z" fill="#A0A3BD"/>
</svg>
