<svg width="34" height="33" viewBox="0 0 34 33" fill="none" xmlns="http://www.w3.org/2000/svg">
<path fill-rule="evenodd" clip-rule="evenodd" d="M0.959107 6.11595C1.44275 3.30813 3.67455 1.24413 6.4913 0.815541C9.19019 0.404889 12.8927 0 17 0C21.1074 0 24.8098 0.404889 27.5087 0.815542C30.3255 1.24413 32.5573 3.30813 33.0409 6.11595C33.378 8.07286 33.6667 10.5588 33.6667 13.3333C33.6667 16.1079 33.378 18.5938 33.0409 20.5507C32.5573 23.3585 30.3255 25.4225 27.5087 25.8511C25.0397 26.2268 21.7307 26.5977 18.0401 26.6581L7.84789 32.6808C6.73686 33.3373 5.33334 32.5364 5.33334 31.2459V25.5733C3.07761 24.8232 1.37428 22.961 0.959107 20.5507C0.62203 18.5938 0.333344 16.1079 0.333344 13.3333C0.333344 10.5588 0.62203 8.07286 0.959107 6.11595ZM7.00001 10C7.00001 9.07953 7.7462 8.33333 8.66668 8.33333H25.3333C26.2538 8.33333 27 9.07953 27 10C27 10.9205 26.2538 11.6667 25.3333 11.6667H8.66668C7.7462 11.6667 7.00001 10.9205 7.00001 10ZM7.00001 16.6667C7.00001 15.7462 7.7462 15 8.66668 15H15.3333C16.2538 15 17 15.7462 17 16.6667C17 17.5871 16.2538 18.3333 15.3333 18.3333H8.66668C7.7462 18.3333 7.00001 17.5871 7.00001 16.6667Z" fill="#222831"/>
</svg>
