<svg width="4" height="12" viewBox="0 0 4 12" fill="none" xmlns="http://www.w3.org/2000/svg">
<path d="M2 8C2.26522 8 2.51957 7.89464 2.70711 7.70711C2.89464 7.51957 3 7.26522 3 7V1C3 0.734784 2.89464 0.48043 2.70711 0.292893C2.51957 0.105357 2.26522 0 2 0C1.73478 0 1.48043 0.105357 1.29289 0.292893C1.10536 0.48043 1 0.734784 1 1V7C1 7.26522 1.10536 7.51957 1.29289 7.70711C1.48043 7.89464 1.73478 8 2 8ZM2 12C2.24723 12 2.4889 11.9267 2.69446 11.7893C2.90002 11.652 3.06024 11.4568 3.15485 11.2284C3.24946 10.9999 3.27421 10.7486 3.22598 10.5061C3.17775 10.2637 3.0587 10.0409 2.88388 9.86612C2.70907 9.6913 2.48634 9.57225 2.24386 9.52402C2.00139 9.47579 1.75005 9.50054 1.52165 9.59515C1.29324 9.68976 1.09801 9.84997 0.960663 10.0555C0.823311 10.2611 0.75 10.5028 0.75 10.75C0.75 11.0815 0.881696 11.3995 1.11612 11.6339C1.35054 11.8683 1.66848 12 2 12Z" fill="#ED2E7E"/>
</svg>
