<svg width="21" height="20" viewBox="0 0 21 20" fill="none" xmlns="http://www.w3.org/2000/svg">
<path fill-rule="evenodd" clip-rule="evenodd" d="M10.7 20C16.2229 20 20.7 15.5228 20.7 10C20.7 4.47715 16.2229 0 10.7 0C5.17716 0 0.700012 4.47715 0.700012 10C0.700012 15.5228 5.17716 20 10.7 20ZM9.70001 6C9.70001 5.44772 10.1477 5 10.7 5C11.2523 5 11.7 5.44772 11.7 6C11.7 6.55229 11.2523 7 10.7 7C10.1477 7 9.70001 6.55229 9.70001 6ZM9.70001 10C9.70001 9.44772 10.1477 9 10.7 9C11.2523 9 11.7 9.44772 11.7 10V14C11.7 14.5523 11.2523 15 10.7 15C10.1477 15 9.70001 14.5523 9.70001 14V10Z" fill="#222831"/>
</svg>
