<svg width="11" height="11" viewBox="0 0 11 11" fill="none" xmlns="http://www.w3.org/2000/svg">
<path d="M1.64022 0.27L5.50022 4.13L9.34022 0.29C9.42505 0.199717 9.52722 0.127495 9.64064 0.0776622C9.75405 0.0278298 9.87636 0.00141434 10.0002 0C10.2654 0 10.5198 0.105357 10.7073 0.292893C10.8949 0.48043 11.0002 0.734784 11.0002 1C11.0026 1.1226 10.9798 1.24439 10.9334 1.35788C10.8869 1.47138 10.8178 1.57419 10.7302 1.66L6.84022 5.5L10.7302 9.39C10.895 9.55124 10.9917 9.76959 11.0002 10C11.0002 10.2652 10.8949 10.5196 10.7073 10.7071C10.5198 10.8946 10.2654 11 10.0002 11C9.87278 11.0053 9.74563 10.984 9.62684 10.9375C9.50806 10.8911 9.40024 10.8204 9.31022 10.73L5.50022 6.87L1.65022 10.72C1.56573 10.8073 1.46479 10.8769 1.35323 10.925C1.24166 10.9731 1.12169 10.9986 1.00022 11C0.735007 11 0.480653 10.8946 0.293117 10.7071C0.105581 10.5196 0.000223742 10.2652 0.000223742 10C-0.00210775 9.8774 0.0206392 9.75561 0.0670687 9.64212C0.113498 9.52862 0.182631 9.42581 0.270224 9.34L4.16022 5.5L0.270224 1.61C0.105409 1.44876 0.00876336 1.23041 0.000223742 1C0.000223742 0.734784 0.105581 0.48043 0.293117 0.292893C0.480653 0.105357 0.735007 0 1.00022 0C1.24022 0.003 1.47022 0.1 1.64022 0.27Z" fill="#EFEFEF"/>
</svg>
