<svg width="65" height="64" viewBox="0 0 65 64" fill="none" xmlns="http://www.w3.org/2000/svg">
<rect x="0.911133" width="64" height="64" rx="32" fill="#0077FF"/>
<path d="M34.4831 43.2C22.4566 43.2 15.5969 34.7916 15.311 20.8H21.3353C21.5331 31.0695 25.9744 35.4194 29.4922 36.3163V20.8H35.1646V29.6568C38.6385 29.2757 42.2882 25.2396 43.5194 20.8H49.1919C48.7279 23.1025 47.8031 25.2826 46.4752 27.204C45.1473 29.1253 43.445 30.7466 41.4747 31.9664C43.674 33.0809 45.6166 34.6584 47.1742 36.5948C48.7319 38.5312 49.8692 40.7824 50.511 43.2H44.2669C43.6907 41.1002 42.5197 39.2205 40.9005 37.7965C39.2812 36.3725 37.286 35.4676 35.1646 35.1952V43.2H34.4831Z" fill="white"/>
</svg>
