<svg width="65" height="64" viewBox="0 0 65 64" fill="none" xmlns="http://www.w3.org/2000/svg">
<path d="M64.0889 32C64.0889 14.3269 49.762 0 32.0889 0C14.4158 0 0.0888672 14.3269 0.0888672 32C0.0888672 49.6731 14.4158 64 32.0889 64C49.762 64 64.0889 49.6731 64.0889 32Z" fill="white"/>
<path fill-rule="evenodd" clip-rule="evenodd" d="M47.7487 32.3637C47.7487 31.2291 47.6469 30.1382 47.4578 29.0909H32.3887V35.28H40.9996C40.6287 37.2801 39.5014 38.9746 37.8069 40.1091V44.1237H42.9778C46.0032 41.3382 47.7487 37.2364 47.7487 32.3637Z" fill="#4285F4"/>
<path fill-rule="evenodd" clip-rule="evenodd" d="M32.3881 47.9999C36.7081 47.9999 40.3299 46.5672 42.9772 44.1236L37.8062 40.109C36.3735 41.069 34.5408 41.6363 32.3881 41.6363C28.2208 41.6363 24.6935 38.8217 23.4353 35.0399H18.0898V39.1854C20.7226 44.4145 26.1335 47.9999 32.3881 47.9999Z" fill="#34A853"/>
<path fill-rule="evenodd" clip-rule="evenodd" d="M23.436 35.0399C23.116 34.0799 22.9341 33.0545 22.9341 31.9999C22.9341 30.9454 23.116 29.9199 23.436 28.9599V24.8145H18.0905C17.0069 26.9745 16.3887 29.4181 16.3887 31.9999C16.3887 34.5817 17.0069 37.0254 18.0905 39.1854L23.436 35.0399Z" fill="#FBBC05"/>
<path fill-rule="evenodd" clip-rule="evenodd" d="M32.3881 22.3637C34.7372 22.3637 36.8462 23.1709 38.5044 24.7564L43.0935 20.1673C40.3226 17.5855 36.7008 16 32.3881 16C26.1335 16 20.7226 19.5855 18.0898 24.8146L23.4353 28.96C24.6935 25.1782 28.2208 22.3637 32.3881 22.3637Z" fill="#EA4335"/>
</svg>
