<svg width="65" height="64" viewBox="0 0 65 64" fill="none" xmlns="http://www.w3.org/2000/svg">
<rect x="0.911133" width="64" height="64" rx="32" fill="#F79A38"/>
<path d="M42.8912 36.4685C43.7307 35.629 43.8507 34.4296 43.131 33.2302C42.5314 32.2707 41.4519 31.791 40.2525 32.0309C39.7728 32.1508 39.293 32.3907 38.8133 32.7505C35.0952 35.2692 30.0578 35.1492 26.3398 32.6306C26.0999 32.5106 25.86 32.3907 25.6201 32.2707C24.3008 31.671 22.9815 31.9109 22.2619 33.1103C21.4223 34.3097 21.5423 35.629 22.6217 36.7084C22.8616 36.9483 23.1015 37.0683 23.2214 37.3081L23.3413 37.4281C25.0205 38.7474 27.0594 39.5869 29.698 39.9468L28.1388 41.5059C26.8195 42.8253 25.3803 44.2645 24.061 45.5838C23.7012 45.9436 23.2214 46.5433 23.2214 47.3829C23.2214 48.4623 23.8211 49.5418 24.9005 50.0215C25.2603 50.2614 25.6201 50.2614 25.98 50.2614C26.5796 50.2614 27.2993 50.0215 27.779 49.4218C29.5781 47.6227 31.0174 46.1835 32.4566 44.7443C32.5765 44.6243 32.5765 44.6243 32.5765 44.6243C32.5765 44.6243 32.6965 44.6243 32.6965 44.7443C33.656 45.8237 34.7354 46.7832 35.6949 47.8626C36.1747 48.3424 36.6544 48.8221 37.1342 49.3019C37.7339 49.9016 38.2136 50.1414 38.9332 50.1414C40.0127 50.2614 41.212 49.5417 41.6918 48.4623C42.1715 47.5028 41.9317 46.3034 41.0921 45.5838C39.8927 44.3844 38.6933 43.0651 37.374 41.8657L35.3351 39.8268C36.4145 39.7069 37.6139 39.467 38.6934 38.9872C40.4924 38.3876 41.8117 37.548 42.8912 36.4685Z" fill="white"/>
<path d="M32.5765 33.1103C37.7338 33.1103 41.9317 29.0324 41.9317 23.8751C41.9317 21.3564 40.9722 18.9577 39.1731 17.1586C37.374 15.3595 35.0952 14.4 32.6965 14.4C27.5392 14.4 23.4613 18.5978 23.3413 23.6352C23.3413 26.1539 24.3008 28.4327 26.0999 30.2318C27.779 32.1508 30.0578 33.1103 32.5765 33.1103ZM29.9379 21.1165C30.6575 20.3969 31.617 20.0371 32.5765 20.0371C34.7354 20.0371 36.2946 21.7162 36.2946 23.7552C36.2946 25.914 34.6155 27.4732 32.5765 27.4732C30.4177 27.4732 28.8585 25.7941 28.8585 23.7552C28.8585 22.7957 29.2183 21.8362 29.9379 21.1165Z" fill="white"/>
<path d="M42.8912 36.4685C43.7307 35.629 43.8507 34.4296 43.131 33.2302C42.5314 32.2707 41.4519 31.791 40.2525 32.0309C39.7728 32.1508 39.293 32.3907 38.8133 32.7505C35.0952 35.2692 30.0578 35.1492 26.3398 32.6306C26.0999 32.5106 25.86 32.3907 25.6201 32.2707C24.3008 31.671 22.9815 31.9109 22.2619 33.1103C21.4223 34.3097 21.5423 35.629 22.6217 36.7084C22.8616 36.9483 23.1015 37.0683 23.2214 37.3081L23.3413 37.4281C25.0205 38.7474 27.0594 39.5869 29.698 39.9468L28.1388 41.5059C26.8195 42.8253 25.3803 44.2645 24.061 45.5838C23.7012 45.9436 23.2214 46.5433 23.2214 47.3829C23.2214 48.4623 23.8211 49.5418 24.9005 50.0215C25.2603 50.2614 25.6201 50.2614 25.98 50.2614C26.5796 50.2614 27.2993 50.0215 27.779 49.4218C29.5781 47.6227 31.0174 46.1835 32.4566 44.7443C32.5765 44.6243 32.5765 44.6243 32.5765 44.6243C32.5765 44.6243 32.6965 44.6243 32.6965 44.7443C33.656 45.8237 34.7354 46.7832 35.6949 47.8626C36.1747 48.3424 36.6544 48.8221 37.1342 49.3019C37.7339 49.9016 38.2136 50.1414 38.9332 50.1414C40.0127 50.2614 41.212 49.5417 41.6918 48.4623C42.1715 47.5028 41.9317 46.3034 41.0921 45.5838C39.8927 44.3844 38.6933 43.0651 37.374 41.8657L35.3351 39.8268C36.4145 39.7069 37.6139 39.467 38.6934 38.9872C40.4924 38.3876 41.8117 37.548 42.8912 36.4685Z" fill="white"/>
</svg>
