<svg width="33" height="33" viewBox="0 0 33 33" fill="none" xmlns="http://www.w3.org/2000/svg">
<path d="M25.3 31.0542C32.0375 29.3771 33 25.3736 33 19.5577C33 17.9346 32.2575 0.568065 29.975 0.0270507H29.645C27.8575 0.0270507 24.97 3.13788 22.495 6.73563C20.79 6.54627 18.7825 6.46512 16.5 6.46512C14.1625 6.46512 12.155 6.54627 10.505 6.73563C8.1125 3.11083 5.005 0 3.3 0C0.6875 0.541014 0 17.8535 0 19.5306C0 25.5359 0.825 29.4853 7.8375 31.0272C14.6575 32.3527 19.525 32.2986 25.3 31.0542ZM8.9375 19.8011C6.325 19.8011 6.325 18.7191 6.325 17.3125C6.325 15.9058 6.325 14.7426 8.9375 14.7426C11.4675 14.7426 11.4675 15.9599 11.4675 17.3125C11.4675 18.665 11.495 19.8011 8.9375 19.8011ZM21.8625 17.3936C21.8625 16.0411 21.8625 14.8779 24.3925 14.8779C27.005 14.8779 27.005 15.9599 27.005 17.3936C27.005 18.8273 27.005 19.9634 24.3925 19.9634C21.8625 19.9634 21.8625 18.7461 21.8625 17.3936Z" fill="url(#paint0_linear_219_416)"/>
<defs>
<linearGradient id="paint0_linear_219_416" x1="25.2123" y1="26.8308" x2="7.3829" y2="0.944805" gradientUnits="userSpaceOnUse">
<stop offset="0.00124921" stop-color="#4373FE"/>
<stop offset="0.5" stop-color="#3DD0FF"/>
<stop offset="1" stop-color="#A0FFFF"/>
</linearGradient>
</defs>
</svg>
