<svg width="24" height="24" viewBox="0 0 24 24" fill="none" xmlns="http://www.w3.org/2000/svg">
<path d="M4.60982 16C4.29429 16 4.05753 16.2882 4.11921 16.5977C4.27999 17.4043 4.56213 18.8238 4.70162 19.5497C4.90332 20.5994 5.5095 21 6.34448 21C7.25887 21 8.00012 20.2587 8.00012 19.3444V16.5C8.00012 16.2239 7.77626 16 7.50012 16H4.60982Z" fill="#222831"/>
<path d="M4.00002 8C2.34316 8 1.00002 9.34315 1.00002 11C1.00002 12.6569 2.34316 14 4.00002 14C5.50002 14 6.00002 14 7.50002 14C7.77616 14 8.00002 13.7761 8.00002 13.5V8.5C8.00002 8.22386 7.77616 8 7.50001 8C6.00001 8 5.50001 8 4.00002 8Z" fill="#222831"/>
<path d="M10.3093 7.1302C10.1237 7.21316 10 7.39518 10 7.59853V14.4015C10 14.6048 10.1237 14.7869 10.3093 14.8698C10.6743 15.0328 11.0302 15.2181 11.3751 15.4251L15.971 18.1826C17.3041 18.9824 19 18.0222 19 16.4676V5.53238C19 3.9778 17.3041 3.01757 15.971 3.8174L11.3751 6.57493C11.0302 6.78188 10.6743 6.96716 10.3093 7.1302Z" fill="#222831"/>
<path d="M21 10C21 9.44772 21.4477 9 22 9C22.5523 9 23 9.44772 23 10V12C23 12.5523 22.5523 13 22 13C21.4477 13 21 12.5523 21 12V10Z" fill="#222831"/>
</svg>
