<svg width="38" height="30" viewBox="0 0 38 30" fill="none" xmlns="http://www.w3.org/2000/svg">
<path d="M2.77499 11.25H35.225C36.388 11.25 37.3333 10.2832 37.3333 9.09375C37.3333 8.66602 37.2073 8.25 36.9781 7.89844L32.6469 1.25391C32.137 0.46875 31.2833 0 30.3609 0H7.63905C6.72239 0 5.86301 0.46875 5.35311 1.25391L1.02186 7.89258C0.792698 8.25 0.666656 8.66602 0.666656 9.08789C0.666656 10.2832 1.61197 11.25 2.77499 11.25ZM4.33332 13.125V27.1875C4.33332 28.7402 5.56509 30 7.08332 30H19.9167C21.4349 30 22.6667 28.7402 22.6667 27.1875V13.125H19V22.5H7.99999V13.125H4.33332ZM30 13.125V28.125C30 29.1621 30.8193 30 31.8333 30C32.8474 30 33.6667 29.1621 33.6667 28.125V13.125H30Z" fill="#222831"/>
</svg>
