<svg width="25" height="24" viewBox="0 0 25 24" fill="none" xmlns="http://www.w3.org/2000/svg">
<path d="M13.15 5.625C13.15 5.10583 13.304 4.59831 13.5924 4.16663C13.8808 3.73495 14.2908 3.3985 14.7705 3.19982C15.2501 3.00114 15.7779 2.94915 16.2871 3.05044C16.7963 3.15173 17.2641 3.40173 17.6312 3.76885C17.9983 4.13596 18.2483 4.60369 18.3496 5.11289C18.4509 5.62209 18.3989 6.14989 18.2002 6.62954C18.0015 7.1092 17.6651 7.51917 17.2334 7.80761C16.8017 8.09605 16.2942 8.25 15.775 8.25C15.0796 8.24753 14.4133 7.97018 13.9216 7.47843C13.4298 6.98668 13.1525 6.32043 13.15 5.625ZM7.15001 10.125C7.15001 9.60582 6.99606 9.09831 6.70762 8.66663C6.41918 8.23495 6.00921 7.8985 5.52955 7.69982C5.0499 7.50114 4.5221 7.44915 4.0129 7.55044C3.5037 7.65173 3.03597 7.90173 2.66886 8.26885C2.30174 8.63596 2.05174 9.10369 1.95045 9.61289C1.84916 10.1221 1.90115 10.6499 2.09983 11.1295C2.29851 11.6092 2.63496 12.0192 3.06664 12.3076C3.49832 12.596 4.00583 12.75 4.52501 12.75C5.22044 12.7475 5.88669 12.4702 6.37844 11.9784C6.87018 11.4867 7.14754 10.8204 7.15001 10.125ZM9.02501 8.25C9.54419 8.25 10.0517 8.09605 10.4834 7.80761C10.9151 7.51917 11.2515 7.1092 11.4502 6.62954C11.6489 6.14989 11.7009 5.62209 11.5996 5.11289C11.4983 4.60369 11.2483 4.13596 10.8812 3.76885C10.5141 3.40173 10.0463 3.15173 9.53712 3.05044C9.02792 2.94915 8.50012 3.00114 8.02047 3.19982C7.54081 3.3985 7.13084 3.73495 6.8424 4.16663C6.55396 4.59831 6.40001 5.10583 6.40001 5.625C6.40248 6.32043 6.67984 6.98668 7.17158 7.47843C7.66333 7.97018 8.32958 8.24753 9.02501 8.25ZM17.9406 13.95C17.5595 13.7405 17.2234 13.458 16.9516 13.1186C16.6797 12.7792 16.4774 12.3895 16.3563 11.9719C16.11 11.1128 15.5907 10.3572 14.8769 9.81927C14.1632 9.28139 13.2937 8.99047 12.4 8.99047C11.5063 8.99047 10.6368 9.28139 9.92308 9.81927C9.20933 10.3572 8.69006 11.1128 8.44376 11.9719C8.19944 12.8128 7.63355 13.5235 6.86876 13.95C6.13421 14.3465 5.55293 14.9767 5.217 15.7408C4.88107 16.505 4.80969 17.3593 5.01416 18.1686C5.21864 18.9779 5.68728 19.6958 6.34585 20.2087C7.00443 20.7215 7.81529 21 8.65001 21C9.14877 20.9995 9.64255 20.9008 10.1031 20.7094C11.5702 20.1016 13.218 20.0982 14.6875 20.7C15.1497 20.898 15.6472 21.0001 16.15 21C16.9855 21.0021 17.7978 20.7251 18.458 20.213C19.1182 19.7009 19.5884 18.983 19.7941 18.1732C19.9998 17.3634 19.9291 16.508 19.5934 15.743C19.2576 14.9779 18.6759 14.3468 17.9406 13.95ZM20.275 7.5C19.7558 7.5 19.2483 7.65395 18.8166 7.94239C18.385 8.23083 18.0485 8.6408 17.8498 9.12046C17.6511 9.60011 17.5992 10.1279 17.7004 10.6371C17.8017 11.1463 18.0517 11.614 18.4189 11.9812C18.786 12.3483 19.2537 12.5983 19.7629 12.6996C20.2721 12.8008 20.7999 12.7489 21.2796 12.5502C21.7592 12.3515 22.1692 12.0151 22.4576 11.5834C22.7461 11.1517 22.9 10.6442 22.9 10.125C22.8975 9.42957 22.6202 8.76332 22.1284 8.27158C21.6367 7.77983 20.9704 7.50247 20.275 7.5Z" fill="#222831"/>
</svg>
