<svg width="25" height="24" viewBox="0 0 25 24" fill="none" xmlns="http://www.w3.org/2000/svg">
<path fill-rule="evenodd" clip-rule="evenodd" d="M11.1 9.00476V14C11.1 14.5523 11.5478 15 12.1 15C12.6523 15 13.1 14.5523 13.1 14V9.00476C15.1723 9.0248 16.7733 9.10542 17.9538 9.19597C19.5638 9.31947 20.7986 10.5346 20.9382 12.1434C21.0278 13.1755 21.1 14.4794 21.1 16C21.1 17.5206 21.0278 18.8245 20.9382 19.8566C20.7986 21.4654 19.5638 22.6805 17.9538 22.804C16.59 22.9086 14.6647 23 12.1 23C9.53533 23 7.61012 22.9086 6.24632 22.804C4.63624 22.6805 3.4015 21.4654 3.26188 19.8566C3.1723 18.8245 3.10004 17.5206 3.10004 16C3.10004 14.4794 3.1723 13.1755 3.26188 12.1434C3.4015 10.5346 4.63624 9.31947 6.24632 9.19597C7.42676 9.10542 9.02778 9.0248 11.1 9.00476Z" fill="#222831"/>
<path fill-rule="evenodd" clip-rule="evenodd" d="M9.30714 6.20711C8.91662 6.59763 8.28345 6.59763 7.89293 6.20711C7.50241 5.81658 7.50241 5.18342 7.89293 4.79289L11.3929 1.29289C11.7835 0.902369 12.4166 0.902369 12.8071 1.29289L16.3071 4.79289C16.6977 5.18342 16.6977 5.81658 16.3071 6.20711C15.9166 6.59763 15.2835 6.59763 14.8929 6.20711L13.1 4.41421V9H11.1V4.41421L9.30714 6.20711Z" fill="#222831"/>
</svg>
