<svg width="32" height="32" viewBox="0 0 32 32" fill="none" xmlns="http://www.w3.org/2000/svg">
<rect width="32" height="32" rx="16" fill="#3772FF"/>
<path fill-rule="evenodd" clip-rule="evenodd" d="M17.9371 18.8799C17.034 19.582 15.8992 20 14.6667 20C11.7212 20 9.33334 17.6122 9.33334 14.6667C9.33334 11.7212 11.7212 9.33334 14.6667 9.33334C17.6122 9.33334 20 11.7212 20 14.6667C20 15.8992 19.582 17.034 18.8799 17.9371L22.4714 21.5286C22.7318 21.789 22.7318 22.2111 22.4714 22.4714C22.2111 22.7318 21.789 22.7318 21.5286 22.4714L17.9371 18.8799ZM18.6667 14.6667C18.6667 16.8758 16.8758 18.6667 14.6667 18.6667C12.4575 18.6667 10.6667 16.8758 10.6667 14.6667C10.6667 12.4575 12.4575 10.6667 14.6667 10.6667C16.8758 10.6667 18.6667 12.4575 18.6667 14.6667Z" fill="#FCFCFD"/>
</svg>
