<svg width="21" height="20" viewBox="0 0 21 20" fill="none" xmlns="http://www.w3.org/2000/svg">
<path fill-rule="evenodd" clip-rule="evenodd" d="M10.5 20C16.0228 20 20.5 15.5228 20.5 10C20.5 4.47715 16.0228 0 10.5 0C4.97715 0 0.5 4.47715 0.5 10C0.5 15.5228 4.97715 20 10.5 20ZM8.26684 7.86561C8.7449 8.14215 9.35663 7.97879 9.63317 7.50073C10.5902 6.1154 12.4401 7.96 10.9234 8.86165C10.6507 9.02371 10.2942 9.29348 10.023 9.62394C9.76628 9.93684 9.53045 10.3672 9.50272 10.896C9.49919 10.9302 9.49738 10.9649 9.49738 11C9.49738 11.5523 9.94509 12 10.4974 12C11.2596 12 11.4047 11.595 11.5512 11.1864C11.6453 10.9235 11.7401 10.6591 12 10.5C12.8266 9.99398 13.5 9.09773 13.5 8C13.5 6.34315 12.1569 5 10.5 5C9.38832 5 8.41916 5.60518 7.90196 6.49927C7.62542 6.97733 7.78878 7.58906 8.26684 7.86561ZM9.49738 14C9.49738 13.4477 9.9451 13 10.4974 13C11.0497 13 11.4974 13.4477 11.4974 14C11.4974 14.5523 11.0497 15 10.4974 15C9.9451 15 9.49738 14.5523 9.49738 14Z" fill="white"/>
</svg>
