<svg width="25" height="24" viewBox="0 0 25 24" fill="none" xmlns="http://www.w3.org/2000/svg">
<path d="M6.29999 13C7.43465 13 8.35596 12.6213 9.05763 12.1572C9.20433 12.0602 9.39564 12.0602 9.54234 12.1572C10.244 12.6213 11.1653 13 12.3 13C13.4346 13 14.356 12.6213 15.0576 12.1572C15.2043 12.0602 15.3956 12.0602 15.5423 12.1572C16.244 12.6213 17.1653 13 18.3 13C18.7414 13 19.1874 12.9626 19.6234 12.8744C19.96 12.8062 20.3 13.0492 20.3 13.3927V18C20.3 19.6569 18.9568 21 17.3 21H15.3C14.7477 21 14.3 20.5523 14.3 20V17C14.3 15.8954 13.4046 15 12.3 15C11.1954 15 10.3 15.8954 10.3 17V20C10.3 20.5523 9.85227 21 9.29999 21H7.29999C5.64313 21 4.29999 19.6569 4.29999 18V13.3927C4.29999 13.0492 4.63994 12.8062 4.97661 12.8744C5.41255 12.9626 5.85856 13 6.29999 13Z" fill="#222831"/>
<path d="M5.20013 4.23781C5.86879 3.4142 6.89598 3 7.95684 3H16.6431C17.704 3 18.7312 3.4142 19.3998 4.23781C20.2561 5.29247 21.3 6.82022 21.3 8C21.3 10 20.3 11 18.3 11C16.825 11 15.8939 9.9122 15.5067 9.34109C15.4142 9.20468 15.1857 9.20468 15.0933 9.34109C14.7061 9.9122 13.775 11 12.3 11C10.825 11 9.8939 9.9122 9.50671 9.34109C9.41423 9.20468 9.18575 9.20468 9.09326 9.34109C8.70607 9.9122 7.77498 11 6.29999 11C4.29999 11 3.29999 10 3.29999 8C3.29999 6.82022 4.3439 5.29247 5.20013 4.23781Z" fill="#222831"/>
</svg>
