<svg width="93" height="13" viewBox="0 0 93 13" fill="none" xmlns="http://www.w3.org/2000/svg">
<path d="M8.95684 10.2291C8.77061 10.6402 8.53359 10.9942 8.24013 11.2911C7.95231 11.588 7.60242 11.8278 7.19045 12.0162C6.79541 12.1875 6.36651 12.2731 5.90375 12.2731H1.18021C0.954478 12.2731 0.762602 12.1989 0.615873 12.0505C0.469145 11.902 0.390137 11.7136 0.390137 11.4852V1.91566C0.390137 1.68727 0.463501 1.49314 0.615873 1.34469C0.768246 1.19624 0.954478 1.12201 1.18021 1.12201H5.90375C6.37216 1.12201 6.80106 1.20766 7.19045 1.37895C7.61371 1.57308 7.9636 1.81289 8.24013 2.10409C8.5223 2.38386 8.76497 2.73787 8.95684 3.1661C9.12614 3.56578 9.2108 3.99972 9.2108 4.46792C9.2108 4.66776 9.18258 4.87902 9.12614 5.1017C9.07535 5.30154 8.99635 5.5128 8.88348 5.72977C8.78754 5.92962 8.66903 6.11233 8.51665 6.27791C8.34735 6.5063 8.2627 6.6833 8.2627 6.7975C8.2627 6.83176 8.27399 6.8603 8.30221 6.87743C8.36993 6.92882 8.44329 7.00305 8.52794 7.10011C8.68031 7.27712 8.79883 7.46554 8.89476 7.65967C9.00763 7.88806 9.08664 8.09932 9.13743 8.28774C9.18822 8.49329 9.21644 8.70455 9.21644 8.93294C9.21079 9.40114 9.12614 9.83508 8.95684 10.2291ZM6.3383 5.49568C6.46245 5.44429 6.60918 5.29583 6.77284 5.05603C6.92521 4.81051 6.99858 4.61066 6.99858 4.46792C6.99858 4.30805 6.97036 4.15959 6.91957 4.02827C6.87442 3.90266 6.73334 3.7542 6.49067 3.58862C6.25365 3.42875 6.05613 3.35452 5.89811 3.35452H3.07076C2.93532 3.35452 2.82245 3.4002 2.73215 3.49155C2.64186 3.58291 2.59671 3.69711 2.59671 3.83414V5.11312C2.59671 5.25016 2.64186 5.36435 2.73215 5.45C2.82245 5.54135 2.93532 5.58132 3.07076 5.58132H5.90375C6.06177 5.58132 6.2085 5.55277 6.3383 5.49568ZM6.3383 9.9607C6.4681 9.9036 6.61482 9.75515 6.77284 9.51534C6.92521 9.28124 6.99858 9.08711 6.99858 8.93294C6.99858 8.77307 6.97036 8.62462 6.91957 8.499C6.87442 8.36768 6.73334 8.21922 6.49067 8.05364C6.25365 7.89377 6.05613 7.81954 5.89811 7.81954H3.07076C2.94096 7.81954 2.82809 7.86522 2.7378 7.95658C2.64186 8.04793 2.59671 8.16213 2.59671 8.29916V9.57815C2.59671 9.70947 2.64186 9.81795 2.7378 9.90931C2.83374 10.0007 2.94096 10.0463 3.07076 10.0463H5.90375C6.0392 10.0463 6.18592 10.0178 6.3383 9.9607Z" fill="#353945"/>
<path d="M10.587 12.1361C10.4967 12.0448 10.4572 11.9363 10.4572 11.7992V1.59021C10.4572 1.45317 10.5023 1.33898 10.5926 1.25333C10.6829 1.16769 10.7958 1.12201 10.9256 1.12201H14.1875C14.5938 1.12201 14.9832 1.1734 15.35 1.28188C15.7338 1.38466 16.0837 1.53311 16.4053 1.72724C16.7383 1.92708 17.0318 2.16118 17.2914 2.42383C17.5622 2.69219 17.7936 2.99481 17.9799 3.33739C18.1943 3.6971 18.341 4.05682 18.4313 4.40511C18.5329 4.8048 18.5893 5.19877 18.5893 5.58132C18.5893 6.00384 18.5442 6.38069 18.4483 6.70614C18.3467 7.07727 18.2112 7.41986 18.0419 7.7339C17.8783 8.03651 17.6582 8.33913 17.3817 8.64746C17.2857 8.74452 17.1785 8.8473 17.0543 8.95007C16.9302 9.05285 16.8512 9.12136 16.8117 9.14991C16.7439 9.19559 16.6875 9.2584 16.648 9.32691C16.6085 9.39543 16.5859 9.46395 16.5859 9.52676C16.5859 9.58956 16.6085 9.64666 16.6537 9.69234L18.5724 11.508C18.6401 11.5823 18.674 11.6622 18.674 11.7421C18.674 11.8735 18.6119 11.9934 18.4934 12.1019C18.3693 12.2103 18.2282 12.2674 18.0701 12.2674H16.6706C16.6085 12.2674 16.5577 12.256 16.5126 12.2218C16.4674 12.1932 16.4279 12.1589 16.3828 12.1133C16.3376 12.0676 16.3094 12.0333 16.2868 12.0162L14.5374 10.2804C14.5204 10.2633 14.4922 10.2291 14.4414 10.1777C14.3963 10.1263 14.3455 10.0863 14.3003 10.0635C14.2552 10.0406 14.2044 10.0292 14.1536 10.0292L13.1209 10.0463C12.9854 10.0463 12.8726 10.092 12.7823 10.1777C12.692 10.2633 12.6468 10.3775 12.6468 10.5145V11.7935C12.6468 11.9306 12.6017 12.0448 12.517 12.1304C12.4324 12.216 12.3195 12.2617 12.1841 12.2617H10.9087C10.7845 12.2674 10.6716 12.2275 10.587 12.1361ZM12.7992 7.6768C12.8951 7.76815 13.0024 7.81383 13.1322 7.81383H14.1818C14.464 7.81383 14.7518 7.75673 15.034 7.64254C15.2992 7.51693 15.5306 7.35705 15.7338 7.16863C15.9369 6.95737 16.095 6.71756 16.2078 6.44349C16.315 6.18655 16.3715 5.90107 16.3715 5.58132C16.3715 5.26158 16.315 4.97038 16.2078 4.70773C16.1006 4.45079 15.9426 4.21669 15.7338 3.99972C15.5193 3.78846 15.2879 3.62859 15.034 3.5201C14.7744 3.40591 14.4922 3.34881 14.1818 3.34881H13.1322C12.9967 3.34881 12.8839 3.39449 12.7936 3.48584C12.7033 3.5772 12.6581 3.6914 12.6581 3.82843V7.33992C12.6581 7.47696 12.7033 7.58544 12.7992 7.6768Z" fill="#353945"/>
<path d="M20.0517 12.1361C19.9614 12.0448 19.9219 11.9363 19.9219 11.7992V1.59021C19.9219 1.45317 19.967 1.33898 20.0573 1.25333C20.1476 1.16198 20.2605 1.12201 20.3903 1.12201H26.5585C26.694 1.12201 26.8069 1.16769 26.8915 1.25333C26.9818 1.34469 27.0213 1.45317 27.0213 1.59021V2.88061C27.0213 3.01194 26.9762 3.12042 26.8915 3.21178C26.8012 3.30313 26.694 3.34881 26.5585 3.34881H22.6081C22.4727 3.34881 22.3598 3.39449 22.2695 3.48584C22.1792 3.5772 22.1341 3.6914 22.1341 3.82843V5.10741C22.1341 5.24445 22.1792 5.35864 22.2695 5.44429C22.3598 5.53564 22.4727 5.57561 22.6081 5.57561H25.2098C25.3508 5.57561 25.4637 5.62129 25.554 5.70694C25.6443 5.79829 25.6838 5.90678 25.6838 6.04381V7.33421C25.6838 7.47125 25.6387 7.58544 25.554 7.67109C25.4637 7.76244 25.3508 7.80241 25.2098 7.80241H22.6081C22.4783 7.80241 22.3655 7.84809 22.2752 7.93945C22.1792 8.0308 22.1341 8.145 22.1341 8.28203V9.56102C22.1341 9.69234 22.1792 9.80083 22.2752 9.89218C22.3711 9.98354 22.4783 10.0292 22.6081 10.0292H26.5585C26.694 10.0292 26.8069 10.0749 26.8915 10.1605C26.9818 10.2519 27.0213 10.3604 27.0213 10.4974V11.7764C27.0213 11.9134 26.9762 12.0276 26.8915 12.1133C26.8012 12.2046 26.694 12.2446 26.5585 12.2446H20.3846C20.2492 12.2674 20.142 12.2275 20.0517 12.1361Z" fill="#353945"/>
<path d="M28.3924 12.1361C28.3021 12.0448 28.2626 11.9363 28.2626 11.7992V1.59021C28.2626 1.45317 28.3078 1.33898 28.3981 1.25333C28.4884 1.16769 28.6012 1.12201 28.731 1.12201H34.8993C35.0347 1.12201 35.1476 1.16769 35.2322 1.25333C35.3225 1.34469 35.362 1.45317 35.362 1.59021V2.88061C35.362 3.01194 35.3169 3.12042 35.2322 3.21178C35.1419 3.30313 35.0347 3.34881 34.8993 3.34881H30.9489C30.8134 3.34881 30.7006 3.39449 30.6103 3.48584C30.52 3.5772 30.4748 3.6914 30.4748 3.82843V5.10741C30.4748 5.24445 30.52 5.35864 30.6103 5.44429C30.7006 5.53564 30.8134 5.57561 30.9489 5.57561H33.5505C33.6916 5.57561 33.8044 5.62129 33.8947 5.70694C33.985 5.79829 34.0245 5.90678 34.0245 6.04381V7.33421C34.0245 7.47125 33.9794 7.58544 33.8947 7.67109C33.8044 7.76244 33.6916 7.80241 33.5505 7.80241H30.9489C30.8191 7.80241 30.7062 7.84809 30.6159 7.93945C30.5256 8.0308 30.4748 8.145 30.4748 8.28203V9.56102C30.4748 9.69234 30.52 9.80083 30.6159 9.89218C30.7119 9.98354 30.8191 10.0292 30.9489 10.0292H34.8993C35.0347 10.0292 35.1476 10.0749 35.2322 10.1605C35.3225 10.2519 35.362 10.3604 35.362 10.4974V11.7764C35.362 11.9134 35.3169 12.0276 35.2322 12.1133C35.1419 12.2046 35.0347 12.2446 34.8993 12.2446H28.7254C28.5899 12.2674 28.4827 12.2275 28.3924 12.1361Z" fill="#353945"/>
<path d="M45.2433 8.17355C45.1079 8.64746 44.9216 9.09282 44.679 9.50392C44.4363 9.93215 44.1485 10.309 43.8268 10.6344C43.4995 10.977 43.1327 11.2682 42.7151 11.5137C42.3031 11.7536 41.8629 11.942 41.3945 12.0733C40.9317 12.2046 40.4464 12.2674 39.9272 12.2674H37.0716C36.9362 12.2674 36.8233 12.2218 36.7387 12.1361C36.654 12.0505 36.6089 11.9363 36.6089 11.7992V1.59021C36.6089 1.45317 36.654 1.33898 36.7443 1.25333C36.8346 1.16198 36.9475 1.12201 37.0773 1.12201H39.9329C40.4464 1.12201 40.9374 1.18482 41.4001 1.31043C41.8347 1.43605 42.2749 1.62447 42.7207 1.88141C43.127 2.12121 43.4939 2.41241 43.8325 2.755C44.1711 3.09758 44.4532 3.46871 44.6846 3.87982C44.9329 4.30234 45.1248 4.7477 45.249 5.2159C45.3788 5.68981 45.4408 6.18084 45.4408 6.70043C45.4352 7.2086 45.3731 7.69964 45.2433 8.17355ZM42.9747 5.40432C42.7941 4.9818 42.557 4.62208 42.2692 4.3366C41.9758 4.03969 41.6202 3.79988 41.2139 3.62288C40.8132 3.44588 40.3843 3.35452 39.9272 3.35452H39.3008C39.1597 3.35452 39.0468 3.4002 38.9566 3.49155C38.8663 3.58291 38.8267 3.6971 38.8267 3.83414V9.57814C38.8267 9.70947 38.8719 9.81795 38.9622 9.90931C39.0525 10.0007 39.1654 10.0463 39.3008 10.0463H39.9272C40.3956 10.0463 40.8245 9.95499 41.2139 9.77799C41.6146 9.6124 41.9645 9.37259 42.2692 9.06427C42.5683 8.76165 42.8054 8.40194 42.9747 7.99654C43.144 7.58544 43.2286 7.1515 43.2286 6.70043C43.2286 6.24936 43.144 5.81542 42.9747 5.40432Z" fill="#353945"/>
<path d="M49.9284 3.1661C50.1202 2.74929 50.3629 2.39528 50.6507 2.10409C50.9442 1.80718 51.2941 1.56737 51.6891 1.37895C52.0842 1.20766 52.5131 1.12201 52.9758 1.12201H56.1305C56.2659 1.12201 56.3788 1.16769 56.4634 1.25333C56.5481 1.33898 56.5933 1.45317 56.5933 1.59021V2.88061C56.5933 3.01194 56.5481 3.12042 56.4634 3.21178C56.3732 3.30313 56.2659 3.34881 56.1305 3.34881H52.9758C52.8178 3.34881 52.6711 3.37736 52.5413 3.43446C52.4058 3.48584 52.293 3.56578 52.197 3.66856C52.0842 3.77704 52.0051 3.89695 51.9544 4.02256C51.8979 4.15388 51.8697 4.30234 51.8697 4.46221C51.8697 4.61637 51.8979 4.75912 51.9544 4.90186C52.0108 5.03319 52.0898 5.15309 52.197 5.25587C52.3042 5.36435 52.4171 5.44429 52.5413 5.48997C52.6711 5.54706 52.8178 5.57561 52.9758 5.57561H53.9521C54.4262 5.57561 54.8551 5.66126 55.2332 5.83255C55.6452 6.00955 56.0007 6.24936 56.2885 6.54627C56.6045 6.8603 56.8416 7.21431 56.9939 7.61399C57.1632 8.01938 57.2479 8.45332 57.2479 8.91581C57.2479 9.39543 57.1632 9.82937 56.9939 10.2119C56.819 10.623 56.582 10.977 56.2885 11.2739C55.9894 11.5823 55.6339 11.8221 55.2332 11.9991C54.8494 12.1704 54.4205 12.256 53.9521 12.256H50.6451C50.5096 12.256 50.3968 12.2103 50.3121 12.1247C50.2275 12.039 50.1823 11.9248 50.1823 11.7878V10.5145C50.1823 10.3775 50.2275 10.2633 50.3121 10.1777C50.3968 10.092 50.5096 10.0463 50.6451 10.0463H53.9521C54.0932 10.0463 54.2343 10.0178 54.381 9.9607C54.5165 9.9036 54.635 9.82366 54.7366 9.71518C54.8325 9.6124 54.9115 9.4925 54.9623 9.36117C55.0187 9.22414 55.047 9.0814 55.047 8.92723C55.047 8.76736 55.0187 8.61891 54.9623 8.49329C54.9059 8.34484 54.8325 8.22493 54.7366 8.13358C54.6406 8.03651 54.5221 7.96229 54.381 7.89948C54.2512 7.84238 54.1101 7.81383 53.9521 7.81383H52.9758C52.5074 7.81383 52.0785 7.72819 51.6891 7.55689C51.2941 7.37418 50.9498 7.12866 50.6507 6.82605C50.3516 6.52343 50.109 6.16943 49.9284 5.76403C49.7591 5.35864 49.6744 4.93041 49.6744 4.46792C49.6744 3.99401 49.7591 3.56007 49.9284 3.1661Z" fill="#353945"/>
<path d="M58.6353 12.1361C58.5451 12.0448 58.5056 11.9363 58.5056 11.7992V1.59021C58.5056 1.45317 58.5507 1.33898 58.641 1.25333C58.7313 1.16769 58.8442 1.12201 58.974 1.12201H60.2494C60.3848 1.12201 60.4977 1.16769 60.5823 1.25333C60.6726 1.34469 60.7121 1.45317 60.7121 1.59021V5.10741C60.7121 5.24445 60.7573 5.35864 60.8476 5.44429C60.9379 5.53564 61.0507 5.57561 61.1862 5.57561H64.6512C64.7867 5.57561 64.8995 5.52993 64.9842 5.44429C65.0745 5.35293 65.114 5.24445 65.114 5.10741V1.59021C65.114 1.45317 65.1591 1.33898 65.2551 1.25333C65.351 1.16198 65.4582 1.12201 65.588 1.12201H66.8635C66.9989 1.12201 67.1118 1.16769 67.1964 1.25333C67.2867 1.34469 67.3262 1.45317 67.3262 1.59021V11.7935C67.3262 11.9306 67.2811 12.0448 67.1964 12.1304C67.1061 12.2218 66.9989 12.2617 66.8635 12.2617H65.588C65.4526 12.2617 65.3397 12.216 65.2494 12.1304C65.1591 12.039 65.114 11.9306 65.114 11.7935V8.28774C65.114 8.15071 65.0688 8.03651 64.9842 7.94516C64.8939 7.8538 64.7867 7.80812 64.6512 7.80812H61.1862C61.0564 7.80812 60.9435 7.8538 60.8532 7.94516C60.7629 8.03651 60.7121 8.15071 60.7121 8.28774V11.7935C60.7121 11.9306 60.667 12.0448 60.5823 12.1304C60.492 12.2218 60.3848 12.2617 60.2494 12.2617H58.9683C58.8329 12.2674 58.7256 12.2275 58.6353 12.1361Z" fill="#353945"/>
<path d="M79.7646 8.2706C79.6179 8.76163 79.426 9.21842 79.189 9.64665C78.9407 10.0749 78.6415 10.4688 78.2973 10.8229C77.9418 11.1769 77.5524 11.4795 77.1404 11.7193C76.7454 11.9705 76.2939 12.1704 75.7803 12.3188C75.2894 12.4558 74.7815 12.5244 74.2679 12.5244C73.7544 12.5244 73.2521 12.4558 72.7611 12.3188C72.2588 12.1704 71.8074 11.9705 71.4011 11.7193C70.9834 11.4738 70.594 11.1769 70.2385 10.8229C69.8943 10.4631 69.5952 10.0692 69.3525 9.64665C69.0985 9.23554 68.9067 8.77305 68.7712 8.2706C68.6358 7.79669 68.5681 7.28852 68.5681 6.74609C68.5681 6.19796 68.6358 5.68408 68.7712 5.21588C68.9067 4.70771 69.0985 4.25093 69.3525 3.83983C69.5895 3.41731 69.883 3.02334 70.2385 2.66933C70.5884 2.32104 70.9778 2.01842 71.4011 1.76719C71.8187 1.52738 72.2758 1.33325 72.7611 1.1848C73.2521 1.04777 73.7544 0.979248 74.2679 0.979248C74.7871 0.979248 75.2894 1.04777 75.7803 1.1848C76.277 1.32754 76.7284 1.52167 77.1404 1.76719C77.558 2.01271 77.9474 2.31533 78.2973 2.66933C78.6472 3.02334 78.9463 3.41731 79.189 3.83983C79.4316 4.25093 79.6235 4.71342 79.7646 5.21588C79.9 5.71263 79.9678 6.22651 79.9678 6.74609C79.9678 7.26568 79.9 7.77385 79.7646 8.2706ZM77.4959 5.35292C77.2984 4.90755 77.0501 4.53071 76.751 4.2281C76.4519 3.92548 76.0794 3.67425 75.6393 3.47441C75.2047 3.2917 74.7476 3.20034 74.2623 3.20034C73.7713 3.20034 73.3142 3.2917 72.8966 3.47441C72.4677 3.66854 72.0952 3.91977 71.7792 4.2281C71.4688 4.54213 71.2205 4.91897 71.0342 5.35292C70.848 5.78686 70.7521 6.24935 70.7521 6.74609C70.7521 7.23142 70.848 7.6882 71.0342 8.11072C71.2205 8.54466 71.4688 8.92151 71.7792 9.23554C72.1008 9.561 72.4733 9.81223 72.8966 9.99494C73.3085 10.1834 73.7656 10.2804 74.2623 10.2804C74.7476 10.2804 75.2047 10.1834 75.6393 9.99494C76.0738 9.80652 76.4463 9.54958 76.751 9.23554C77.0501 8.93864 77.2984 8.56179 77.4959 8.11072C77.6765 7.67678 77.7668 7.22 77.7668 6.74609C77.7725 6.26077 77.6822 5.79828 77.4959 5.35292Z" fill="#353945"/>
<path d="M91.9717 10.3832C91.7967 10.7943 91.5597 11.154 91.2663 11.4509C90.9615 11.7593 90.606 11.9991 90.2109 12.1647C89.8102 12.336 89.387 12.4216 88.9299 12.4216C88.501 12.4216 88.1059 12.3531 87.7504 12.2103C87.4626 12.1019 87.2143 11.9591 87.0055 11.7935C86.9095 11.7307 86.8192 11.6965 86.7346 11.6965C86.6387 11.6965 86.5484 11.7307 86.4524 11.7992C86.2323 11.9591 85.984 12.0961 85.7075 12.2103C85.3463 12.3531 84.9513 12.4216 84.5167 12.4216C84.054 12.4216 83.6307 12.336 83.2357 12.1647C82.8406 12.0048 82.4907 11.765 82.1804 11.4509C81.8756 11.1426 81.6386 10.7829 81.4749 10.3832C81.3 9.98925 81.2097 9.5553 81.2097 9.0814V1.59021C81.2097 1.45317 81.2548 1.33898 81.3451 1.25333C81.4354 1.16769 81.5483 1.12201 81.6781 1.12201H82.9535C83.0889 1.12201 83.2018 1.16769 83.2865 1.25333C83.3768 1.34469 83.4163 1.45317 83.4163 1.59021V9.07569C83.4163 9.23556 83.4445 9.3783 83.5009 9.51534C83.5461 9.63524 83.6251 9.75515 83.7436 9.87505C83.8564 9.98925 83.975 10.0692 84.0935 10.1206C84.2402 10.1777 84.3813 10.2062 84.5224 10.2062C84.6578 10.2062 84.8045 10.1777 84.9569 10.1206C85.0811 10.0692 85.1996 9.98925 85.3068 9.87505C85.4084 9.76657 85.4874 9.64666 85.5382 9.51534C85.5946 9.36117 85.6228 9.21843 85.6228 9.07569V1.59021C85.6228 1.45317 85.668 1.33898 85.7526 1.25333C85.8373 1.16769 85.9502 1.12201 86.0856 1.12201H87.3497C87.4852 1.12201 87.598 1.16769 87.6827 1.25333C87.7673 1.33898 87.8125 1.45317 87.8125 1.59021V9.07569C87.8125 9.21843 87.8407 9.36117 87.8971 9.51534C87.9479 9.64666 88.0326 9.76657 88.1454 9.87505C88.247 9.98354 88.3655 10.0635 88.4897 10.1206C88.6477 10.1777 88.7888 10.2062 88.9242 10.2062C89.0653 10.2062 89.2064 10.1777 89.3531 10.1206C89.4886 10.0635 89.6014 9.98354 89.703 9.87505C89.799 9.76657 89.8836 9.64666 89.9457 9.51534C90.0021 9.3783 90.0303 9.22985 90.0303 9.07569V1.59021C90.0303 1.45317 90.0755 1.33898 90.1658 1.25333C90.2561 1.16769 90.3689 1.12201 90.4987 1.12201H91.7629C91.8983 1.12201 92.0112 1.16769 92.0958 1.25333C92.1861 1.34469 92.2256 1.45317 92.2256 1.59021V9.07569C92.2313 9.54959 92.1466 9.98354 91.9717 10.3832Z" fill="#353945"/>
</svg>
